<svg height="28" viewBox="0 0 28 28" width="28" xmlns="http://www.w3.org/2000/svg" xmlns:xlink="http://www.w3.org/1999/xlink"><defs><path id="a" d="m0 0h28v28h-28z"/></defs><g fill-rule="nonzero" transform="translate(3.95 3.9)" xlink:href="#a"><path d="m10.0875 20.175c5.5476 0 10.0892-4.5514 10.0892-10.0875 0-5.54414-4.5335-10.0875-10.0812-10.0875-.59667 0-.92968.354686-.92968.936323v3.605277c0 .49824.3457.87773.83242.87773.49646 0 .84046-.37949.84046-.87773v-3.649416l-.8471 1.073816c4.5568-.0457 8.1883 3.59122 8.1883 8.1215 0 4.4881-3.5903 8.1004-8.0924 8.1004-4.5004 0-8.10841-3.6123-8.1004-8.1004.008-1.94454.69121-3.73243 1.83555-5.11701.36152-.50038.41445-1.0244.00254-1.44003-.40488-.41034-1.07031-.36699-1.50546.18574-1.435158 1.73653-2.31973 3.96954-2.31973 6.3713 0 5.5361 4.54961 10.0875 10.0875 10.0875z"/><path d="m10.0875 11.7301c.9158 0 1.6523-.7348 1.6523-1.6426 0-.55821-.2759-1.05235-.7265-1.36114l-4.68167-3.24434c-.56465-.38398-1.11894.17559-.74648.75449l3.06563 4.65759c.32304.5067.83945.836 1.43672.836z"/></g></svg>