<svg height="28" viewBox="0 0 28 28" width="28" xmlns="http://www.w3.org/2000/svg" xmlns:xlink="http://www.w3.org/1999/xlink"><defs><path id="a" d="m0 0h28v28h-28z"/></defs><path d="m5.6541 9.7959c2.38574 2.6123 5.79824 4.1248 9.4115 4.1168316 2.8762-.0080316 5.6147-.9834416 7.8287-2.7691816l-.6269-1.23261c-1.9977 1.72539-4.5287 2.66797-7.2018 2.67597-3.44822.00801-6.65604-1.52226-8.79783-4.15663zm-1.064261 5.5498c5.092191 4.3764 12.398261 5.1887 18.280461 2.0818l-.0381-1.5066c-5.6846 3.3648-13.00564 2.541-17.898418-2.05625zm4.870121 6.7178 1.56698.3521c-.69824-1.6302-1.07265-3.3695-1.09668-5.1541-.22422-4.80427 1.87969-9.36287 5.60844-12.361502l-1.3994-.556833c-3.69595 3.247855-5.74927 7.982815-5.53305 12.934335.01601 1.6258.308 3.2286.85371 4.786zm6.49004.9756 1.2353-.5498c-1.8455-2.5694-2.8504-5.6278-2.8504-8.81938 0-3.01855.8842-5.90566 2.5452-8.3543l-1.2912-.455854c-1.68227 2.620704-2.58148 5.668354-2.58148 8.810154 0 3.38668 1.02788 6.62068 2.94258 9.36918zm5.6922-3.6082.8947-1.0075c-3.2953-1.8654-5.3478-5.30914-5.3879-9.12672-.016-1.3584.2299-2.71406.7287-3.97461l-1.2779-.36094c-.5316 1.3795-.7926 2.83711-.7766 4.34356.0401 4.18027 2.2532 8.00451 5.819 10.12621zm-11.7885-5.63013c.87578 0 1.59453-.72675 1.59453-1.61054 0-.88203-.71875-1.60253-1.59453-1.60253-.89003 0-1.6123.7205-1.6123 1.60253 0 .88379.72227 1.61054 1.6123 1.61054zm7.4998.80703c.8695 0 1.5838-.71249 1.5838-1.60155 0-.87129-.7143-1.58379-1.5838-1.58379-.8891 0-1.6016.7125-1.6016 1.58379 0 .88906.7125 1.60155 1.6016 1.60155zm-2.9189 5.5619c.8873 0 1.598-.7125 1.598-1.6078 0-.889-.7143-1.6113-1.598-1.6113-.89886 0-1.62113.7223-1.62113 1.6113 0 .8953.72227 1.6078 1.62113 1.6078zm-.3971 3.9053c5.5701 0 10.0892-4.5191 10.0892-10.0875 0-5.56836-4.5191-10.0875-10.0892-10.0875-5.56836 0-10.0875 4.51914-10.0875 10.0875 0 5.5684 4.51914 10.0875 10.0875 10.0875zm0-1.5637c-4.70411 0-8.52208-3.8197-8.52208-8.5238 0-4.70411 3.81797-8.52384 8.52208-8.52384 4.7059 0 8.5238 3.81973 8.5238 8.52384 0 4.7041-3.8179 8.5238-8.5238 8.5238z" xlink:href="#a"/></svg>