<svg height="99" viewBox="0 0 79 99" width="79" xmlns="http://www.w3.org/2000/svg"><g fill="none"><path d="m21.5246001 51.5929367v24.5179c.0172.645-.1616 1.28-.5127 1.821-.3511.542-.8581.964-1.454 1.211s-1.2526.308-1.8836.173c-.6309-.134-1.2064-.456-1.6504-.924l-9.76579996-9.786c-.7141-.715-1.2483-1.59-1.5585-2.552-.3101-.962-.3875-1.984-.2255-2.981.1619-.998.5584-1.943 1.1569-2.757.5985-.815 1.3818-1.475 2.2853-1.927z" fill="#2c2260"/><path d="m43.0490001 3.63443672v33.13149998c0 1.2209-.3407 2.4176-.9828 3.4558-.6421 1.0383-1.5606 1.8771-2.6525 2.4224l-17.8892 8.9488-13.60829996 6.8119c-.9007.452-1.6813 1.112-2.2778 1.925-.5964.813-.9918 1.756-1.1536 2.752-.1618.995-.0854 2.015.2228 2.975.3083.96.8396 1.834 1.5504 2.549l-.9167-.918c-1.6937-1.694-3.0371-3.706-3.9536-5.921-.9164-2.214-1.38770014-4.587-1.38770014-6.9835v-31.4327c0-1.2209.34070014-2.4176.98280014-3.4559.6421-1.0382 1.5606-1.877 2.6525-2.4223l34.16009996-17.09219998c.554-.2755 1.1692-.4051 1.7873-.3763.618.0288 1.2185.2149 1.7446.5408.5261.3258.9603.7806 1.2616 1.3213s.4596 1.1494.4601 1.7684z" fill="#69daff"/><path d="m71.0072001 40.2274367-13.609 6.8433v-24.5496c-.017-.6451.162-1.2803.513-1.8216s.858-.9634 1.454-1.2105 1.253-.3076 1.884-.1735 1.206.4564 1.65.9245l8.849 8.8532.917.9172c.714.7149 1.248 1.5894 1.558 2.5514.311.9619.388 1.9839.226 2.9816s-.559 1.9427-1.157 2.757c-.598.8144-1.382 1.4748-2.285 1.927z" fill="#2c2260"/><path d="m78.9232023 43.8324367v31.4404c.0009978 1.223-.3390022 2.421-.9810022 3.461s-1.561 1.88-2.654 2.425l-34.1606 17.085c-.5532.277-1.1682.409-1.7865.381-.6182-.027-1.2192-.212-1.7458-.538-.5265-.325-.9611-.78-1.2624-1.321-.3013-.54-.4588007-1.149-.4588007-1.769v-33.131c0-1.221.3406007-2.418.9827007-3.456s1.5606-1.877 2.6525-2.4222l17.8889-8.917 13.609-6.8113c.903-.4522 1.686-1.1126 2.285-1.927.598-.8143.995-1.7593 1.157-2.757.162-.9978.084-2.0197-.226-2.9816-.31-.962-.844-1.8365-1.558-2.5514l.917.9092c3.411 3.4188 5.332 8.0499 5.3410022 12.8809z" fill="#ff86a1"/></g></svg>