<svg height="35" viewBox="0 0 193 35" width="193" xmlns="http://www.w3.org/2000/svg"><g fill="none" fill-rule="evenodd"><g fill="#000" fill-rule="nonzero" transform="translate(141.471 8.9)"><path d="m11.776 16.422h-2.484v-1.61h-.046c-.35266667.69-.86633333 1.1845-1.541 1.4835s-1.38766667.4485-2.139.4485c-.93533333 0-1.75183333-.1648333-2.4495-.4945s-1.2765-.7781667-1.7365-1.3455-.805-1.2381667-1.035-2.0125-.345-1.6061667-.345-2.4955c0-1.07333333.14566667-2.001.437-2.783s.6785-1.426 1.1615-1.932 1.035-.87783333 1.656-1.1155 1.2535-.3565 1.8975-.3565c.368 0 .74366667.0345 1.127.1035s.75133333.18016667 1.104.3335.6785.34883333.9775.5865.54816667.5175.7475.8395h.046v-6.072h2.622zm-9.154-5.819c0 .506.06516667 1.0043333.1955 1.495s.32966667.9276667.598 1.311.6095.69 1.0235.92.90466667.345 1.472.345c.58266667 0 1.08483333-.1226667 1.5065-.368s.76666667-.5673333 1.035-.966.46766667-.8471667.598-1.3455.1955-1.0081667.1955-1.5295c0-1.31866667-.29516667-2.346-.8855-3.082s-1.3915-1.104-2.4035-1.104c-.61333333 0-1.13083333.1265-1.5525.3795s-.76666667.58266667-1.035.989-.46.86633333-.575 1.38-.1725 1.0388333-.1725 1.5755z"/><path d="m20.079 16.744c-.9506667 0-1.7978333-.1571667-2.5415-.4715s-1.3723333-.7475-1.886-1.2995-.9046667-1.2113333-1.173-1.978-.4025-1.61-.4025-2.53c0-.90466667.1341667-1.74033333.4025-2.507s.6593333-1.426 1.173-1.978 1.1423333-.98516667 1.886-1.2995 1.5908333-.4715 2.5415-.4715 1.7978333.15716667 2.5415.4715 1.3723333.7475 1.886 1.2995.9046667 1.21133333 1.173 1.978.4025 1.60233333.4025 2.507c0 .92-.1341667 1.7633333-.4025 2.53s-.6593333 1.426-1.173 1.978-1.1423333.9851667-1.886 1.2995-1.5908333.4715-2.5415.4715zm0-2.07c.5826667 0 1.0886667-.1226667 1.518-.368s.782-.5673333 1.058-.966.4791667-.8471667.6095-1.3455.1955-1.0081667.1955-1.5295c0-.506-.0651667-1.012-.1955-1.518s-.3335-.9545-.6095-1.3455-.6286667-.70916667-1.058-.9545-.9353333-.368-1.518-.368-1.0886667.12266667-1.518.368-.782.5635-1.058.9545-.4791667.8395-.6095 1.3455-.1955 1.012-.1955 1.518c0 .5213333.0651667 1.0311667.1955 1.5295s.3335.9468333.6095 1.3455.6286667.7206667 1.058.966.9353333.368 1.518.368z"/><path d="m36.294 8.51c-.1073333-.736-.4025-1.29183333-.8855-1.6675s-1.0925-.5635-1.8285-.5635c-.3373333 0-.6976667.0575-1.081.1725s-.736.32966667-1.058.644-.5903333.75133333-.805 1.311-.322 1.29183333-.322 2.1965c0 .4906667.0575.9813333.1725 1.472s.299.9276667.552 1.311.5788333.6938333.9775.9315.8816667.3565 1.449.3565c.7666667 0 1.3991667-.2376667 1.8975-.713s.8088333-1.1423333.9315-2.001h2.622c-.2453333 1.5486667-.8318333 2.7331667-1.7595 3.5535s-2.1581667 1.2305-3.6915 1.2305c-.9353333 0-1.7595-.1571667-2.4725-.4715s-1.3148333-.7436667-1.8055-1.288-.8625-1.1921667-1.1155-1.9435-.3795-1.564-.3795-2.438c0-.88933333.1226667-1.725.368-2.507s.6133333-1.4605 1.104-2.0355 1.1001667-1.02733333 1.8285-1.357 1.5831667-.4945 2.5645-.4945c.69 0 1.3455.08816667 1.9665.2645s1.173.44083333 1.656.7935.8778333.79733333 1.1845 1.334.4906667 1.173.552 1.909z"/><path d="m43.033 12.604c.0766667.7666667.368 1.3033333.874 1.61s1.1116667.46 1.817.46c.2453333 0 .5251667-.0191667.8395-.0575s.6095-.1111667.8855-.2185.5021667-.2645.6785-.4715.2568333-.4791667.2415-.8165-.138-.6133333-.368-.828-.5251667-.3871667-.8855-.5175-.7705-.2415-1.2305-.3335-.9276667-.1916667-1.403-.299c-.4906667-.1073333-.9621667-.2376667-1.4145-.391s-.8586667-.3603333-1.219-.621c-.3603333-.26066667-.6478333-.59416667-.8625-1.0005s-.322-.9085-.322-1.5065c0-.644.1571667-1.1845.4715-1.6215s.713-.78966667 1.196-1.058 1.0196667-.45616667 1.61-.5635 1.1538333-.161 1.6905-.161c.6133333 0 1.1998333.06516667 1.7595.1955s1.0656667.34116667 1.518.6325.828.67083333 1.127 1.1385.4868333 1.03116667.5635 1.6905h-2.737c-.1226667-.62866667-.4101667-1.05033333-.8625-1.265s-.9698333-.322-1.5525-.322c-.184 0-.4025.01533333-.6555.046s-.4906667.08816667-.713.1725-.4101667.207-.5635.368-.23.37183333-.23.6325c0 .322.1111667.58266667.3335.782s.5136667.36416667.874.4945.7705.2415 1.2305.3335.9353333.19166667 1.426.299c.4753333.10733333.943.23766667 1.403.391s.8701667.3603333 1.2305.621.6516667.5903333.874.989.3335.8893333.3335 1.472c0 .7053333-.161 1.3033333-.483 1.794s-.7398333.8893333-1.2535 1.196-1.0848333.529-1.7135.667-1.2496667.207-1.863.207c-.7513333 0-1.4451667-.0843333-2.0815-.253s-1.1883333-.4255-1.656-.7705-.8356667-.7743333-1.104-1.288-.4101667-1.1231667-.4255-1.8285z"/></g><path d="m127.166 7.822v21" stroke="#000" stroke-linecap="square" stroke-opacity=".15"/><g fill-rule="nonzero"><path d="m36.2803171 26.1850546h3.2928792v-6.6220384h5.0124076c3.6256004-.0034952 6.5638585-2.9417532 6.5673535-6.5673538-.003495-3.62560062-2.9417531-6.56385862-6.5673535-6.5673538h-8.3052868zm8.3052868-16.48253544c1.8164786.00512738 3.2877515 1.47640024 3.292879 3.29287904-.0051275 1.8164789-1.4764004 3.2877517-3.292879 3.2928791h-5.0124076v-6.58567009zm9.5675244 16.48253544h3.2927912v-6.6954796c-.0016859-1.228016.4853954-2.4062204 1.3537346-3.2745596.8683393-.8683392 2.0465434-1.3554203 3.2745596-1.3537345h1.3354148v-3.2928851h-1.3354148c-1.6653982-.0014505-3.2874499.5307259-4.6282942 1.5184957v-1.5184957h-3.2927912zm25.5743657-7.2991242c0-4.1892319-3.4026007-7.5918325-7.5735163-7.5918325-4.1917866.0025746-7.5892579 3.4000461-7.5918327 7.5918325 0 4.1709155 3.4026007 7.5735162 7.5918327 7.5735162 4.1792608-.0083814 7.5651348-3.3942553 7.5735163-7.5735162zm-3.274563 0c-.0101775 2.3700179-1.9289356 4.2887758-4.2989533 4.2989534-2.3726181-.0039269-4.2950267-1.9263355-4.2989592-4.2989534-.0013048-1.1405546.4511984-2.2347719 1.2576928-3.0412663s1.9007117-1.2589977 3.0412664-1.2576928c2.3726523.0038841 4.2951143 1.9263068 4.2990414 4.2989591zm18.7326197-3.1647532c0-2.5244761-2.9086775-4.5734334-6.4941769-4.5734334-3.585499 0-6.4941769 2.0488693-6.4941769 4.5734334h3.4026007c0-.7317705 1.3902759-1.3354151 3.0915762-1.3354151s3.0915762.6036446 3.0915762 1.3354151zm-13.2445172 6.1831523c0 2.5977411 3.0183991 4.7014712 6.7503403 4.7014712 3.7136252 0 6.7503407-2.1037301 6.7503407-4.7014712 0-2.3232612-2.3964383-4.2257764-5.5612796-4.6465224l-2.1403625-.2743919c-1.2439218-.1463541-2.1403629-.6768216-2.1403629-1.262238h-3.4026006c0 2.2500841 2.3232612 4.1160548 5.3599767 4.499816l2.1403625.2743919c1.3537316.1828986 2.3415776.7499987 2.3415776 1.4089444 0 .8049475-1.5000856 1.4634529-3.34774 1.4634529s-3.3477396-.6585935-3.3477396-1.4634529zm30.4038745-.2190909h-3.786538c-.814925.9507364-2.004224 1.4984315-3.256423 1.4996452-1.819239-.0023577-3.442483-1.143017-4.061194-2.8538168h11.48862c.094862-.475957.143871-.9599128.146355-1.4452247 0-4.1892318-3.402601-7.5918324-7.573517-7.5918324-4.191786.0025745-7.5892576 3.400046-7.5918321 7.5918324 0 4.1709156 3.4026011 7.5735162 7.5918321 7.5735162 3.102485-.0030036 5.891028-1.8933076 7.042697-4.7741199zm-7.043049-7.0975571c1.787812.0041218 3.388088 1.1098531 4.024298 2.7806397h-8.048859c.627355-1.6779604 2.233257-2.787763 4.024649-2.7813994z" fill="#2c245e" stroke="#2c245e"/><path d="m7.20470579 17.2623784v8.2025292c0 .9606576-1.16079933 1.4436451-1.84121327.7631747l-3.26879276-3.2687928c-.48549782-.4850103-.70805674-1.1739485-.59806515-1.8513294.1099916-.677381.53910463-1.2605021 1.15312182-1.5669757z" fill="#2c245e"/><path d="m14.4096949 1.21659063v11.08478487c0 .8332316-.4711538 1.5948214-1.2168034 1.9666837l-5.98801601 2.9940363-4.55506249 2.2788323c-.61401719.3064736-1.04313022.8895947-1.15312181 1.5669757-.1099916.677381.11256732 1.3663191.59806514 1.8513294l-.30688773-.3068877c-1.14491908-1.1451457-1.7880351-2.6982083-1.7878686-4.3175286v-10.52186507c0-.83323161.47115328-1.59482134 1.21680285-1.96668368l11.43438235-5.71840742c.3770025-.18807226.8245003-.1675572 1.1827136.05422025.3582133.22177744.5760744.61320015.5757961 1.03450995" fill="#6edbff"/><g transform="translate(12.008105 6.454702)"><path d="m11.7598838 7.00554966-4.5550625 2.27883235v-8.20286868c0-.9606576 1.1607993-1.44364515 1.84121324-.76317464l2.96201816 2.96201817.3068877.30688773c.4854979.48501033.7080568 1.17394843.5980652 1.85132944-.1099916.67738097-.5391046 1.26050209-1.1531218 1.56697563" fill="#2c245e"/><path d="m14.4096967 8.21183059v10.51909321c.000818.8341215-.470463 1.5968693-1.2168028 1.9693424l-11.43438233 5.7158053c-.37647757.1891954-.82414628.1695776-1.1826305-.0518256-.35848421-.2214032-.57647525-.6129029-.57588107-1.0342459v-11.0847849c0-.8332316.47115565-1.5948213 1.21680523-1.9666836l5.98807263-2.9939798 4.55506254-2.2788889c.6140341-.30645173 1.0431719-.88956255 1.1531862-1.56694539.1100143-.67738283-.1125269-1.36633337-.5980164-1.85135968l.3068877.30422898c1.1445737 1.14648586 1.7875632 2.7002196 1.7878685 4.32024388" fill="#ff88a3"/></g></g></g></svg>