<svg height="64" viewBox="0 0 190 64" width="190" xmlns="http://www.w3.org/2000/svg"><path d="m4 60c1.18525291-5.4254326 3.1804396-13.5059617 3.62147143-15.2240375 6.42418667-25.8278163 17.98488867-27.6539361 23.53055407-27.6539361 16.7538962 0 18.2487993 27.6999876-4.3642669 27.6999876-10.7955383 0-3.9958547-17.9813462 10.1986399-4.4227168 2.3043471 2.3486273 4.9647078 4.5768123 8.7621867 4.5768123 12.0070475 0 13.0715461-22.4943949 12.4037991-28.1179937 2.2972622 6.0894276 13.6082233 2.2476683 18.5658462 3.4379229-2.0191819 6.2204972-11.6545762 24.681842 2.1679638 24.681842 5.9495017 0 9.757608-4.8708336 8.6328882-10.1029944-1.8119501-8.0359897 2.8445668-18.0167705 12.5862335-18.0167705 16.149913 0 17.75286 27.9638982.317047 27.9638982-14.718773 0-16.7840064-18.413522.382582-18.413522 9.042038 0 10.405872 1.4984455 13.181361 2.8835335 8.866689 4.4262592 14.940175-5.0957775 10.604248-12.4339097 0 0 17.085113 5.6696503 20.847167 16.3890265 2.470841 7.0423397-7.814588 11.7289672-14.314937 11.7289672-11.086017 0-3.421982-16.9540432 9.460045-4.7751881 2.2211 2.1006577 5.170168 4.7751881 10.173843 4.7751881 7.416065 0 17.736919-6.4117882 21.095137-15.6433462 5.710388-15.6982537-11.039966-18.004372-14.731172-4.4050047-1.594091 5.8715684 1.459479 20.0890888 17.915811 20.0890888 6.587139 0 10.513916-3.3741593 10.513916-3.3741593" fill="none" stroke="#9fb0c2" stroke-linecap="round" stroke-linejoin="round" stroke-width="5.5"/></svg>
